<svg width="16" height="16" viewBox="0 0 16 16" fill="none" xmlns="http://www.w3.org/2000/svg">
<path d="M12.6636 4.42735L10.4863 2.11017C10.4458 2.06714 10.3978 2.03303 10.3449 2.00977C10.2921 1.98651 10.2354 1.97456 10.1782 1.97461H5.82366C5.59269 1.97461 5.37117 2.07226 5.20784 2.24609C5.04451 2.41991 4.95276 2.65566 4.95276 2.90149V3.82836H4.08185C3.85087 3.82836 3.62935 3.92601 3.46602 4.09984C3.30269 4.27366 3.21094 4.50941 3.21094 4.75524V13.0971C3.21094 13.3429 3.30269 13.5787 3.46602 13.7525C3.62935 13.9263 3.85087 14.024 4.08185 14.024H10.1782C10.4092 14.024 10.6307 13.9263 10.794 13.7525C10.9574 13.5787 11.0491 13.3429 11.0491 13.0971V12.1702H11.92C12.151 12.1702 12.3725 12.0726 12.5359 11.8988C12.6992 11.7249 12.7909 11.4892 12.7909 11.2434V4.75524C12.791 4.69436 12.7798 4.63407 12.7579 4.57781C12.736 4.52155 12.704 4.47042 12.6636 4.42735ZM10.1782 13.0971H4.08185V4.75524H8.25622L10.1782 6.80073V11.6975C10.1782 11.701 10.1782 11.7039 10.1782 11.7068C10.1782 11.7097 10.1782 11.7126 10.1782 11.7161V13.0971ZM11.92 11.2434H11.0491V6.60899C11.0492 6.54811 11.0379 6.48782 11.0161 6.43156C10.9942 6.3753 10.9622 6.32418 10.9217 6.28111L8.74448 3.96392C8.70401 3.92089 8.65597 3.88678 8.60311 3.86352C8.55024 3.84026 8.49359 3.82831 8.43639 3.82836H5.82366V2.90149H9.99804L11.92 4.94698V11.2434ZM8.87185 9.38961C8.87185 9.51253 8.82597 9.6304 8.74431 9.71732C8.66264 9.80423 8.55188 9.85305 8.43639 9.85305H5.82366C5.70817 9.85305 5.59742 9.80423 5.51575 9.71732C5.43409 9.6304 5.38821 9.51253 5.38821 9.38961C5.38821 9.2667 5.43409 9.14883 5.51575 9.06191C5.59742 8.975 5.70817 8.92618 5.82366 8.92618H8.43639C8.55188 8.92618 8.66264 8.975 8.74431 9.06191C8.82597 9.14883 8.87185 9.2667 8.87185 9.38961ZM8.87185 11.2434C8.87185 11.3663 8.82597 11.4842 8.74431 11.5711C8.66264 11.658 8.55188 11.7068 8.43639 11.7068H5.82366C5.70817 11.7068 5.59742 11.658 5.51575 11.5711C5.43409 11.4842 5.38821 11.3663 5.38821 11.2434C5.38821 11.1205 5.43409 11.0026 5.51575 10.9157C5.59742 10.8288 5.70817 10.7799 5.82366 10.7799H8.43639C8.55188 10.7799 8.66264 10.8288 8.74431 10.9157C8.82597 11.0026 8.87185 11.1205 8.87185 11.2434Z" fill="#191919"/>
</svg>
